<svg xmlns="http://www.w3.org/2000/svg" xmlns:xlink="http://www.w3.org/1999/xlink" id="Grupo_105" data-name="Grupo 105" width="256.582" height="68.291" viewBox="0 0 256.582 68.291"><defs><clipPath id="clip-path"><rect id="Ret&#xE2;ngulo_63" data-name="Ret&#xE2;ngulo 63" width="256.582" height="68.291"></rect></clipPath></defs><path id="Caminho_62" data-name="Caminho 62" d="M264.819,75.323h3.051V98.54h-3.051V88.092H253.542V98.54h-3.085V75.323h3.085v9.851h11.277Z" transform="translate(-140.027 -42.112)"></path><g id="Grupo_104" data-name="Grupo 104"><g id="Grupo_103" data-name="Grupo 103" clip-path="url(#clip-path)"><path id="Caminho_63" data-name="Caminho 63" d="M311.869,104.315a8.869,8.869,0,0,1-12.388,0,8.722,8.722,0,0,1,6.186-14.924,8.5,8.5,0,0,1,6.2,2.52,8.808,8.808,0,0,1,0,12.4m-6.2-.3a5.777,5.777,0,1,0-4.146-1.691,5.678,5.678,0,0,0,4.146,1.691" transform="translate(-166.016 -49.977)"></path><path id="Caminho_64" data-name="Caminho 64" d="M353.809,90.367H356.7v16.584h-2.886v-2.388a5.9,5.9,0,0,1-5.373,2.82,6.166,6.166,0,0,1-4.676-1.841A6.925,6.925,0,0,1,342,100.549V90.367h2.885v10.016a4.276,4.276,0,0,0,1.094,3.134A4.043,4.043,0,0,0,349,104.629a4.677,4.677,0,0,0,3.482-1.343,5.671,5.671,0,0,0,1.327-4.13Z" transform="translate(-191.207 -50.523)"></path><path id="Caminho_65" data-name="Caminho 65" d="M384.859,94.249a1.7,1.7,0,0,0,.977,1.508,10.551,10.551,0,0,0,2.328.965l2.719.8a4.766,4.766,0,0,1,2.315,1.506,4.2,4.2,0,0,1,.948,2.834,4.357,4.357,0,0,1-1.741,3.616,7.032,7.032,0,0,1-4.461,1.36,7.76,7.76,0,0,1-4.146-1.061,5.932,5.932,0,0,1-2.455-2.819l2.488-1.427a3.5,3.5,0,0,0,1.492,1.891,4.778,4.778,0,0,0,2.62.7,4.586,4.586,0,0,0,2.355-.547,1.838,1.838,0,0,0,.929-1.705,1.744,1.744,0,0,0-.963-1.54,10.152,10.152,0,0,0-2.314-.985l-2.718-.816a5.04,5.04,0,0,1-2.329-1.472,3.893,3.893,0,0,1-.962-2.719,4.413,4.413,0,0,1,1.675-3.549,6.34,6.34,0,0,1,4.2-1.393,7.057,7.057,0,0,1,3.6.912,5.85,5.85,0,0,1,2.372,2.537l-2.422,1.36a3.473,3.473,0,0,0-3.549-2.123,3.714,3.714,0,0,0-2.089.567,1.812,1.812,0,0,0-.862,1.605" transform="translate(-213.202 -49.976)"></path><path id="Caminho_66" data-name="Caminho 66" d="M416.415,99.439a5.461,5.461,0,0,0,2.04,3.449,6.341,6.341,0,0,0,3.963,1.227,5.19,5.19,0,0,0,4.776-2.421l2.455,1.393a8.1,8.1,0,0,1-7.3,3.748,8.682,8.682,0,0,1-6.418-2.471,8.471,8.471,0,0,1-2.471-6.252,8.578,8.578,0,0,1,2.421-6.235,8.36,8.36,0,0,1,6.269-2.487,7.633,7.633,0,0,1,5.954,2.57,8.946,8.946,0,0,1,2.3,6.185,8.74,8.74,0,0,1-.1,1.294Zm5.738-7.33a5.507,5.507,0,0,0-5.738,4.809h11.078a5.532,5.532,0,0,0-1.858-3.582,5.321,5.321,0,0,0-3.482-1.227" transform="translate(-231.16 -49.976)"></path><path id="Caminho_67" data-name="Caminho 67" d="M258.524,28.943a11.134,11.134,0,0,1-6.234-1.656,8.857,8.857,0,0,1-3.563-4.506l4.2-2.458a5.6,5.6,0,0,0,5.735,3.812,4.936,4.936,0,0,0,3.028-.748,2.354,2.354,0,0,0-.213-3.936,18.154,18.154,0,0,0-4.2-1.586,25.707,25.707,0,0,1-2.832-1,12.18,12.18,0,0,1-2.316-1.335,5.446,5.446,0,0,1-1.763-2.119,6.933,6.933,0,0,1-.606-2.993,6.677,6.677,0,0,1,2.4-5.4,8.724,8.724,0,0,1,5.788-2.013,9.631,9.631,0,0,1,5.326,1.479A9.94,9.94,0,0,1,266.86,8.6l-4.132,2.387a4.977,4.977,0,0,0-4.773-3.206,3.763,3.763,0,0,0-2.4.695,2.193,2.193,0,0,0-.873,1.8,2.267,2.267,0,0,0,.98,1.905,13.653,13.653,0,0,0,3.758,1.586q1.14.357,1.728.552t1.6.605a9.794,9.794,0,0,1,1.568.766,12.543,12.543,0,0,1,1.264.963,4.925,4.925,0,0,1,1.087,1.246,7.14,7.14,0,0,1,.908,3.527,6.684,6.684,0,0,1-2.511,5.486,10.072,10.072,0,0,1-6.537,2.03" transform="translate(-139.06 -1.683)"></path><path id="Caminho_68" data-name="Caminho 68" d="M358.87,35.252a9.414,9.414,0,0,1-16.1-6.679,9.422,9.422,0,1,1,18.845,0,9.053,9.053,0,0,1-2.743,6.679M348.735,32.1a4.63,4.63,0,0,0,3.438,1.389,4.691,4.691,0,0,0,3.455-1.389,4.778,4.778,0,0,0,1.389-3.526,4.778,4.778,0,0,0-1.389-3.526,4.691,4.691,0,0,0-3.455-1.389,4.63,4.63,0,0,0-3.438,1.389,4.81,4.81,0,0,0-1.371,3.526,4.81,4.81,0,0,0,1.371,3.526" transform="translate(-191.636 -10.717)"></path><path id="Caminho_69" data-name="Caminho 69" d="M406.86,35.252a9.414,9.414,0,0,1-16.1-6.679,9.422,9.422,0,1,1,18.845,0,9.053,9.053,0,0,1-2.743,6.679M396.725,32.1a4.63,4.63,0,0,0,3.438,1.389,4.691,4.691,0,0,0,3.456-1.389,4.779,4.779,0,0,0,1.389-3.526,4.778,4.778,0,0,0-1.389-3.526,4.691,4.691,0,0,0-3.456-1.389,4.63,4.63,0,0,0-3.438,1.389,4.81,4.81,0,0,0-1.371,3.526,4.81,4.81,0,0,0,1.371,3.526" transform="translate(-218.466 -10.717)"></path><path id="Caminho_70" data-name="Caminho 70" d="M452.975,18.393h-7.4V25.8a1.762,1.762,0,0,0,.463,1.354,2.126,2.126,0,0,0,1.354.481,20,20,0,0,0,2.209-.018v4.168q-4.738.534-6.679-.891T440.984,25.8v-7.41h4.6l-4.6-3.475V8.989h4.6v3.845Z" transform="translate(-246.547 -5.026)"></path><rect id="Ret&#xE2;ngulo_62" data-name="Ret&#xE2;ngulo 62" width="4.595" height="17.811" transform="translate(209.097 8.951)"></rect><path id="Caminho_71" data-name="Caminho 71" d="M557.762,19.668V36.624a7.586,7.586,0,0,1-2.725,6.305,10.215,10.215,0,0,1-6.572,2.173,11.14,11.14,0,0,1-5.076-1.1,7.724,7.724,0,0,1-3.366-3.242l3.919-2.244a5.646,5.646,0,0,0,8.086,1.354,4.171,4.171,0,0,0,1.247-3.242V34.7a6.711,6.711,0,0,1-5.7,2.707,8.407,8.407,0,0,1-6.323-2.653,8.987,8.987,0,0,1-2.547-6.466,8.974,8.974,0,0,1,2.565-6.448,8.4,8.4,0,0,1,6.306-2.672,6.715,6.715,0,0,1,5.7,2.707ZM544.707,31.8a5.358,5.358,0,0,0,7.16,0,4.687,4.687,0,0,0,1.407-3.509,4.645,4.645,0,0,0-1.407-3.473,5.358,5.358,0,0,0-7.16,0,4.643,4.643,0,0,0-1.407,3.473,4.686,4.686,0,0,0,1.407,3.509" transform="translate(-301.18 -10.717)"></path><path id="Caminho_72" data-name="Caminho 72" d="M308.156,10.97a6.451,6.451,0,0,1,4.827,1.959,7.44,7.44,0,0,1,1.906,5.415V29.28h-4.6V18.914a3.65,3.65,0,0,0-.962-2.725,3.5,3.5,0,0,0-2.565-.944,3.784,3.784,0,0,0-2.85,1.1,4.593,4.593,0,0,0-1.069,3.313V29.28h-4.6V4.344h4.6v9.119a5.933,5.933,0,0,1,5.308-2.494" transform="translate(-166.748 -2.429)"></path><path id="Caminho_73" data-name="Caminho 73" d="M507.182,21.341a7.1,7.1,0,0,0-4.087-1.027l-11.6-.005,5.669,4.269h-4.483V38.117h4.488V24.585s4.9,0,5.541.016a2,2,0,0,1,1.354.481,1.761,1.761,0,0,1,.463,1.354V38.117h4.6V26.435q0-3.669-1.941-5.094" transform="translate(-274.788 -11.354)"></path><path id="Caminho_74" data-name="Caminho 74" d="M474.232,6.789v3.386h4.6Z" transform="translate(-265.135 -3.796)"></path><path id="Caminho_75" data-name="Caminho 75" d="M86.159,0H21.318a9.335,9.335,0,0,0-9.125,7.367L1.229,58.187.09,63.466a3.98,3.98,0,0,0,2.495,4.567l.017.007a3.992,3.992,0,0,0,4.622-1.4,20.561,20.561,0,0,1,16.635-8.455H77.518a9.246,9.246,0,0,0,9.038-7.3l8.58-39.77A9.183,9.183,0,0,0,86.159,0M45.318,33.772l-1.265,5.9a7.028,7.028,0,0,1-6.875,5.554L14.32,45.209l1.6-7.432H35.2a2.454,2.454,0,0,0,2.4-1.937l.046-.214A2.339,2.339,0,0,0,35.361,32.8H22.5a4.445,4.445,0,0,1-4.345-5.382l.442-2.05H38.521a6.951,6.951,0,0,1,6.8,8.409M77.5,45.212H69.013L70.7,37.4a2.21,2.21,0,0,0-1.307-2.5L59.473,30.74,56.351,45.212H47.886l4.8-22.054a2.288,2.288,0,0,0-2.236-2.774h-30.8l.828-3.838a4.554,4.554,0,0,1,4.452-3.594H54.84a6.838,6.838,0,0,1,6.685,8.281l-1.5,6.951H72.687l3.286-15.232H84.46Z" transform="translate(0)" fill="#0e48fb"></path></g></g></svg>